<svg width="36" height="36" viewBox="0 0 36 36" fill="none" xmlns="http://www.w3.org/2000/svg">
<path d="M8.06629 5.46977C7.49153 5.46977 6.94031 5.69809 6.53389 6.10451C6.12748 6.51093 5.89915 7.06215 5.89915 7.63691V11.6616C5.89915 11.99 5.76868 12.305 5.53645 12.5373C5.30421 12.7695 4.98922 12.9 4.66079 12.9C4.33235 12.9 4.01737 12.7695 3.78513 12.5373C3.55289 12.305 3.42242 11.99 3.42242 11.6616V7.63691C3.42242 6.40528 3.91169 5.22409 4.78258 4.3532C5.65348 3.48231 6.83466 2.99304 8.06629 2.99304H12.091C12.4194 2.99304 12.7344 3.12351 12.9666 3.35575C13.1989 3.58799 13.3293 3.90297 13.3293 4.23141C13.3293 4.55984 13.1989 4.87482 12.9666 5.10706C12.7344 5.3393 12.4194 5.46977 12.091 5.46977H8.06629ZM8.06629 30.2371C7.49153 30.2371 6.94031 30.0087 6.53389 29.6023C6.12748 29.1959 5.89915 28.6447 5.89915 28.0699V24.0452C5.89915 23.7168 5.76868 23.4018 5.53645 23.1696C5.30421 22.9373 4.98922 22.8069 4.66079 22.8069C4.33235 22.8069 4.01737 22.9373 3.78513 23.1696C3.55289 23.4018 3.42242 23.7168 3.42242 24.0452V28.0699C3.42242 29.3016 3.91169 30.4827 4.78258 31.3536C5.65348 32.2245 6.83466 32.7138 8.06629 32.7138H12.091C12.4194 32.7138 12.7344 32.5833 12.9666 32.3511C13.1989 32.1189 13.3293 31.8039 13.3293 31.4754C13.3293 31.147 13.1989 30.832 12.9666 30.5998C12.7344 30.3675 12.4194 30.2371 12.091 30.2371H8.06629ZM30.6665 7.63691C30.6665 7.06215 30.4381 6.51093 30.0317 6.10451C29.6253 5.69809 29.0741 5.46977 28.4993 5.46977H24.4746C24.1462 5.46977 23.8312 5.3393 23.599 5.10706C23.3667 4.87482 23.2363 4.55984 23.2363 4.23141C23.2363 3.90297 23.3667 3.58799 23.599 3.35575C23.8312 3.12351 24.1462 2.99304 24.4746 2.99304H28.4993C29.7309 2.99304 30.9121 3.48231 31.783 4.3532C32.6539 5.22409 33.1432 6.40528 33.1432 7.63691V11.6616C33.1432 11.99 33.0127 12.305 32.7805 12.5373C32.5482 12.7695 32.2333 12.9 31.9048 12.9C31.5764 12.9 31.2614 12.7695 31.0292 12.5373C30.7969 12.305 30.6665 11.99 30.6665 11.6616V7.63691ZM28.4993 30.2371C29.0741 30.2371 29.6253 30.0087 30.0317 29.6023C30.4381 29.1959 30.6665 28.6447 30.6665 28.0699V24.0452C30.6665 23.7168 30.7969 23.4018 31.0292 23.1696C31.2614 22.9373 31.5764 22.8069 31.9048 22.8069C32.2333 22.8069 32.5482 22.9373 32.7805 23.1696C33.0127 23.4018 33.1432 23.7168 33.1432 24.0452V28.0699C33.1432 29.3016 32.6539 30.4827 31.783 31.3536C30.9121 32.2245 29.7309 32.7138 28.4993 32.7138H24.4746C24.1462 32.7138 23.8312 32.5833 23.599 32.3511C23.3667 32.1189 23.2363 31.8039 23.2363 31.4754C23.2363 31.147 23.3667 30.832 23.599 30.5998C23.8312 30.3675 24.1462 30.2371 24.4746 30.2371H28.4993ZM21.1719 17.9649C21.1719 19.5822 19.8791 20.8924 18.2828 20.8924C16.6866 20.8924 15.3937 19.5822 15.3937 17.9661C15.3937 16.35 16.6853 15.0386 18.2828 15.0386C19.8803 15.0386 21.1719 16.3488 21.1719 17.9649ZM14.3485 10.3997C14.7151 9.65668 15.4655 9.1861 16.2866 9.1861H20.279C21.1001 9.1861 21.8518 9.65668 22.2171 10.3997L23.0629 12.1136H24.0623C25.6573 12.1136 26.9514 13.4238 26.9514 15.0399V22.3586C26.9514 23.9722 25.6573 25.2836 24.0623 25.2836H12.5034C10.9083 25.2836 9.61425 23.9734 9.61425 22.3561V15.0386C9.61425 13.4226 10.9083 12.1124 12.5034 12.1124H13.5015L14.3485 10.3997ZM22.6171 17.9661C22.6171 15.5426 20.6766 13.5773 18.2828 13.5773C15.889 13.5773 13.9485 15.5426 13.9485 17.9674C13.9485 20.3921 15.889 22.3574 18.2828 22.3574C20.6766 22.3574 22.6171 20.3921 22.6171 17.9674" fill="#BEC0BF"/>
</svg>
