<svg width="25" height="25" viewBox="0 0 25 25" fill="none" xmlns="http://www.w3.org/2000/svg">
<path d="M12.5001 2.01343C18.0201 2.01343 22.5001 6.49343 22.5001 12.0134C22.5001 17.5334 18.0201 22.0134 12.5001 22.0134C6.98006 22.0134 2.50006 17.5334 2.50006 12.0134C2.50006 6.49343 6.98006 2.01343 12.5001 2.01343ZM12.5001 7.01343C9.74006 7.01343 7.50006 9.25343 7.50006 12.0134C7.50006 14.7734 9.74006 17.0134 12.5001 17.0134C13.3636 17.0135 14.2125 16.7898 14.9639 16.3643C15.7154 15.9388 16.3438 15.326 16.7881 14.5854L15.0731 13.5574C14.8032 14.007 14.4201 14.3781 13.9621 14.6335C13.5041 14.8889 12.9872 15.0198 12.4628 15.0132C11.9384 15.0065 11.425 14.8625 10.9736 14.5956C10.5222 14.3286 10.1487 13.948 9.89035 13.4916C9.63195 13.0353 9.49769 12.5192 9.50095 11.9948C9.5042 11.4704 9.64486 10.956 9.90891 10.5029C10.1729 10.0498 10.5511 9.67387 11.0058 9.41253C11.4604 9.15118 11.9756 9.01357 12.5001 9.01343C13.5931 9.01343 14.5501 9.59743 15.0731 10.4704L16.7881 9.44043C16.3437 8.70006 15.7152 8.08739 14.9638 7.66207C14.2123 7.23675 13.3635 7.01328 12.5001 7.01343Z" fill="#F8F7F7"/>
</svg>
