<svg width="36" height="36" viewBox="0 0 36 36" fill="none" xmlns="http://www.w3.org/2000/svg">
<path d="M31.2968 25.0773H26.9625M26.9625 25.0773C26.9625 26.4238 26.9625 27.097 26.7429 27.6273C26.5977 27.9781 26.3848 28.2968 26.1163 28.5653C25.8478 28.8338 25.5291 29.0467 25.1782 29.1919C24.648 29.4115 23.9748 29.4115 22.6282 29.4115C21.2817 29.4115 20.6085 29.4115 20.0782 29.1919C19.7274 29.0467 19.4087 28.8338 19.1402 28.5653C18.8717 28.2968 18.6588 27.9781 18.5136 27.6273C18.294 27.097 18.294 26.4238 18.294 25.0773C18.294 23.7307 18.294 23.0575 18.5136 22.5273C18.6588 22.1764 18.8717 21.8577 19.1402 21.5892C19.4087 21.3207 19.7274 21.1078 20.0782 20.9626C20.6085 20.743 21.2817 20.743 22.6282 20.743C23.9748 20.743 24.648 20.743 25.1782 20.9626C25.5291 21.1078 25.8478 21.3207 26.1163 21.5892C26.3848 21.8577 26.5977 22.1764 26.7429 22.5273C26.9625 23.0575 26.9625 23.7307 26.9625 25.0773ZM31.2968 10.6297H22.6282M9.62541 10.6297H5.29114M9.62541 10.6297C9.62541 11.9762 9.62541 12.6494 9.84502 13.1797C9.99023 13.5305 10.2032 13.8492 10.4716 14.1177C10.7401 14.3862 11.0589 14.5991 11.4097 14.7443C11.9399 14.9639 12.6132 14.9639 13.9597 14.9639C15.3062 14.9639 15.9795 14.9639 16.5097 14.7443C16.8605 14.5991 17.1793 14.3862 17.4477 14.1177C17.7162 13.8492 17.9291 13.5305 18.0744 13.1797C18.294 12.6494 18.294 11.9762 18.294 10.6297C18.294 9.28315 18.294 8.60989 18.0744 8.07966C17.9291 7.72885 17.7162 7.41009 17.4477 7.14162C17.1793 6.87314 16.8605 6.66021 16.5097 6.51499C15.9795 6.29539 15.3062 6.29539 13.9597 6.29539C12.6132 6.29539 11.9399 6.29539 11.4097 6.51499C11.0589 6.66021 10.7401 6.87314 10.4716 7.14162C10.2032 7.41009 9.99023 7.72885 9.84502 8.07966C9.62541 8.60989 9.62541 9.28315 9.62541 10.6297ZM13.9597 25.0773H5.29114" stroke="#BEC0BF" stroke-width="2.60057" stroke-linecap="round" stroke-linejoin="round"/>
</svg>
