<svg width="27" height="28" viewBox="0 0 27 28" fill="none" xmlns="http://www.w3.org/2000/svg">
<path d="M17.2626 2.64777C15.3219 2.64777 13.5995 3.53635 12.4326 5.06365C11.2657 3.53635 9.54328 2.64777 7.60257 2.64777C5.91227 2.65014 4.29179 3.43007 3.09657 4.8165C1.90135 6.20292 1.22897 8.08264 1.22693 10.0433C1.22693 18.1493 11.4482 24.6261 11.8829 24.8983C12.0519 25.0039 12.2407 25.0591 12.4326 25.0591C12.6245 25.0591 12.8133 25.0039 12.9823 24.8983C13.417 24.6261 23.6383 18.1493 23.6383 10.0433C23.6362 8.08264 22.9639 6.20292 21.7686 4.8165C20.5734 3.43007 18.9529 2.65014 17.2626 2.64777ZM16.7323 18.5998C15.3869 19.9241 13.9487 21.116 12.4326 22.1631C10.9165 21.116 9.4783 19.9241 8.13291 18.5998C6.03957 16.5167 3.54534 13.34 3.54534 10.0433C3.54534 8.79515 3.9728 7.5981 4.73368 6.7155C5.49456 5.8329 6.52653 5.33706 7.60257 5.33706C9.32206 5.33706 10.7614 6.39037 11.3594 8.08687C11.4464 8.33418 11.595 8.54582 11.7861 8.6948C11.9773 8.84377 12.2023 8.92333 12.4326 8.92333C12.6629 8.92333 12.888 8.84377 13.0791 8.6948C13.2702 8.54582 13.4188 8.33418 13.5058 8.08687C14.1038 6.39037 15.5431 5.33706 17.2626 5.33706C18.3387 5.33706 19.3706 5.8329 20.1315 6.7155C20.8924 7.5981 21.3199 8.79515 21.3199 10.0433C21.3199 13.34 18.8256 16.5167 16.7323 18.5998Z" fill="#00140D"/>
</svg>
